<svg width="44" height="25" viewBox="0 0 44 25" fill="none" xmlns="http://www.w3.org/2000/svg">
<g clip-path="url(#clip0_233_2833)">
<path fill-rule="evenodd" clip-rule="evenodd" d="M4.78744 0H44V21.3198H41.2285L41.4219 5.6764V5.49046C41.4219 4.82672 41.153 4.19012 40.6743 3.72046C40.1956 3.2508 39.5463 2.98648 38.8688 2.98555H4.78027V0H4.78744ZM0 5.05894H39.2126V25H0V5.05894Z" fill="#427D2A"/>
<path fill-rule="evenodd" clip-rule="evenodd" d="M32.8424 8.15674C32.8576 8.90007 33.163 9.60941 33.6959 10.1387C34.2288 10.668 34.9486 10.977 35.707 11.002V18.8921C35.301 18.8924 34.8992 18.9723 34.5252 19.1269C34.1512 19.2815 33.8124 19.5078 33.5289 19.7924C33.2454 20.0771 33.0227 20.4144 32.8741 20.7845C32.7255 21.1547 32.6538 21.5501 32.6634 21.9478H6.59566C6.60746 21.1799 6.31209 20.4379 5.77274 19.8807C5.23339 19.3234 4.49288 18.995 3.70959 18.9657V11.0756C4.50895 11.0841 5.27908 10.7815 5.85102 10.2343C6.42296 9.68705 6.74999 8.9399 6.76038 8.15674H32.8424Z" fill="#87CC71"/>
<path fill-rule="evenodd" clip-rule="evenodd" d="M14.4232 12.3422C14.9813 11.3157 15.8374 10.4745 16.8835 9.92479C17.9295 9.37511 19.1185 9.1417 20.2999 9.25408C21.4813 9.36647 22.6022 9.81959 23.5208 10.5562C24.4394 11.2927 25.1144 12.2796 25.4605 13.3921C25.8066 14.5045 25.8082 15.6926 25.4651 16.8059C25.1221 17.9192 24.4497 18.9079 23.5331 19.6469C22.6165 20.3858 21.4969 20.8418 20.3157 20.9573C19.1346 21.0727 17.945 20.8424 16.8975 20.2954C16.2018 19.9327 15.5858 19.4391 15.0849 18.843C14.5839 18.2469 14.2078 17.5599 13.978 16.8212C13.7482 16.0826 13.6693 15.3068 13.7457 14.5383C13.822 13.7697 14.0523 13.0235 14.4232 12.3422Z" fill="#427D2A"/>
<path d="M19.7728 19.4288C19.6992 19.4297 19.6261 19.4162 19.5579 19.389C19.4897 19.3619 19.4277 19.3216 19.3757 19.2706C19.3236 19.2196 19.2825 19.1588 19.2548 19.092C19.227 19.0252 19.2132 18.9536 19.2142 18.8815V18.3482C18.8909 18.3303 18.571 18.2738 18.2617 18.1798C18.0228 18.102 17.7905 18.0058 17.5671 17.8921C17.4907 17.8599 17.4224 17.8118 17.3667 17.7513C17.3111 17.6907 17.2695 17.6191 17.2448 17.5413C17.2023 17.3945 17.2099 17.238 17.2663 17.0958C17.3222 16.9599 17.4283 16.8497 17.5635 16.787C17.6437 16.7566 17.7299 16.7445 17.8156 16.7518C17.9012 16.7591 17.984 16.7856 18.0576 16.8291C18.2564 16.9277 18.4637 17.0087 18.6771 17.0712C18.9938 17.159 19.322 17.2004 19.6511 17.194C19.9669 17.221 20.2835 17.1511 20.557 16.994C20.6405 16.9378 20.7087 16.8623 20.7555 16.7742C20.8023 16.6861 20.8264 16.5881 20.8255 16.4888C20.8271 16.4117 20.8111 16.3353 20.779 16.2649C20.7468 16.1946 20.6991 16.132 20.6393 16.0819C20.4429 15.9416 20.2141 15.8512 19.9733 15.8187L18.9564 15.6012C17.832 15.3673 17.2699 14.7826 17.2699 13.8471C17.2651 13.608 17.3096 13.3705 17.4006 13.1487C17.4917 12.9269 17.6275 12.7253 17.7998 12.556C18.1849 12.1904 18.6818 11.9587 19.2142 11.8965V11.3281C19.213 11.2568 19.2263 11.1859 19.2533 11.1196C19.2804 11.0534 19.3206 10.9931 19.3718 10.9422C19.4241 10.8905 19.4866 10.8498 19.5556 10.8226C19.6246 10.7955 19.6985 10.7825 19.7728 10.7844C19.8449 10.7827 19.9166 10.7959 19.9833 10.8231C20.0499 10.8503 20.1099 10.8909 20.1595 10.9422C20.2106 10.9931 20.2509 11.0534 20.278 11.1196C20.305 11.1859 20.3183 11.2568 20.3171 11.3281V11.8719C20.5605 11.9034 20.8003 11.9574 21.0332 12.0333C21.2617 12.1062 21.4787 12.2101 21.6777 12.342C21.7447 12.3798 21.8032 12.4303 21.8499 12.4906C21.8967 12.5508 21.9306 12.6196 21.9499 12.6929C21.9826 12.8282 21.9675 12.9705 21.9069 13.0963C21.878 13.1585 21.8363 13.2142 21.7846 13.2601C21.7329 13.3059 21.6722 13.3409 21.6061 13.3629C21.5219 13.3869 21.4334 13.3933 21.3465 13.3818C21.2596 13.3704 21.176 13.3412 21.1013 13.2963C20.927 13.2123 20.7447 13.1453 20.557 13.0963C20.323 13.0383 20.0822 13.0112 19.8408 13.0156C19.5438 12.998 19.2488 13.0742 18.9994 13.2331C18.9047 13.2942 18.8272 13.3777 18.7741 13.4757C18.7209 13.5738 18.6937 13.6834 18.695 13.7945C18.6929 13.8705 18.7078 13.946 18.7388 14.0157C18.7697 14.0854 18.8159 14.1476 18.874 14.1979C19.0614 14.3322 19.2786 14.4212 19.5078 14.4575L20.5355 14.675C21.0229 14.7518 21.4763 14.9678 21.8389 15.296C21.9794 15.4435 22.0888 15.6167 22.1607 15.8058C22.2326 15.9949 22.2656 16.196 22.2578 16.3976C22.2656 16.6339 22.2225 16.8692 22.1312 17.088C22.0398 17.3069 21.9024 17.5044 21.7279 17.6676C21.3425 18.0141 20.8597 18.239 20.3421 18.3131V18.8815C20.3436 18.9529 20.3304 19.0238 20.3033 19.0901C20.2763 19.1564 20.2359 19.2167 20.1846 19.2674C20.1352 19.3192 20.0752 19.3603 20.0086 19.3881C19.942 19.4159 19.8702 19.4298 19.7979 19.4288H19.7728Z" fill="white"/>
</g>
<defs>
<clipPath id="clip0_233_2833">
<rect width="44" height="25" fill="white"/>
</clipPath>
</defs>
</svg>
