<svg width="24" height="25" viewBox="0 0 24 25" fill="none" xmlns="http://www.w3.org/2000/svg">
<path d="M10.5 16.6162C11.2879 16.6162 12.0682 16.4599 12.7961 16.1562C13.5241 15.8526 14.1855 15.4075 14.7427 14.8465C15.2998 14.2854 15.7418 13.6193 16.0433 12.8862C16.3448 12.1531 16.5 11.3674 16.5 10.5739C16.5 9.78046 16.3448 8.99474 16.0433 8.26166C15.7418 7.52858 15.2998 6.86249 14.7427 6.30142C14.1855 5.74034 13.5241 5.29527 12.7961 4.99162C12.0682 4.68797 11.2879 4.53168 10.5 4.53168C8.90872 4.53168 7.38259 5.16827 6.25737 6.30142C5.13216 7.43456 4.50002 8.97143 4.50002 10.5739C4.50002 12.1764 5.13216 13.7133 6.25737 14.8465C7.38259 15.9796 8.90872 16.6162 10.5 16.6162ZM16.82 15.5145L20.4 19.1197C20.4955 19.2127 20.5716 19.3238 20.6239 19.4467C20.6762 19.5696 20.7037 19.7018 20.7048 19.8355C20.7058 19.9692 20.6804 20.1018 20.63 20.2255C20.5797 20.3493 20.5053 20.4616 20.4114 20.5561C20.3174 20.6506 20.2057 20.7253 20.0828 20.7759C19.9599 20.8264 19.8282 20.8518 19.6954 20.8505C19.5626 20.8493 19.4314 20.8214 19.3095 20.7686C19.1875 20.7157 19.0772 20.6389 18.985 20.5426L15.405 16.9374C13.7975 18.1941 11.7748 18.7865 9.74877 18.5942C7.72273 18.4019 5.84562 17.4393 4.49957 15.9023C3.15351 14.3653 2.4397 12.3694 2.50344 10.3211C2.56718 8.27274 3.40368 6.32585 4.84266 4.87674C6.28164 3.42763 8.21492 2.58524 10.2489 2.52105C12.283 2.45686 14.2648 3.1757 15.7911 4.53123C17.3173 5.88676 18.2732 7.77709 18.4642 9.8174C18.6552 11.8577 18.0669 13.8946 16.819 15.5135L16.82 15.5145Z" fill="#8B8989"/>
</svg>
